<svg xmlns="http://www.w3.org/2000/svg" width="235.573" height="71.184" viewBox="0 0 235.573 71.184">
  <g id="Group_138" data-name="Group 138" transform="translate(-99.404 -29)">
    <g id="Group_27" data-name="Group 27" transform="translate(99.529 29)">
      <path id="Path_3" data-name="Path 3" d="M260.553,528.936a1.319,1.319,0,0,1-1.4.814,1.3,1.3,0,0,1-1.359-.707,13.547,13.547,0,0,1-.291-3.729v-9.457l.065-.013a25.747,25.747,0,0,0-.065-5.177v-1.555a18.473,18.473,0,0,1,.081-1.887c.161-.96.495-1.653,1.152-1.8,2.49-.557,2.065,2.519,2.065,4.581,0,1.719-.049,3.341.053,4.764v10.286a14.574,14.574,0,0,1-.3,3.879m10.608-21.864a8.77,8.77,0,0,0-2.093-4.34c-2.022-2.062-4.974-2.981-8.8-3.324h-2.155c-4.934.376-8.653,1.966-10.3,5.633-.015.03-.029.061-.043.091a9.227,9.227,0,0,0-.339.921c-.007.024-.016.047-.024.071a13.123,13.123,0,0,0-.525,4.062V518l.016,0v2.518a62.025,62.025,0,0,0,.3,7.5,7.573,7.573,0,0,0,1.89,3.967,9.653,9.653,0,0,0,4.2,2.734,17.806,17.806,0,0,0,5.889.911,17.368,17.368,0,0,0,6.053-.964,9.688,9.688,0,0,0,4.123-2.766,7.629,7.629,0,0,0,1.817-3.976,64.4,64.4,0,0,0,.289-7.407v-5.939c0-.369,0-.716,0-1.062l.034,0a32.235,32.235,0,0,0-.321-6.349l-.011-.089" transform="translate(-246.882 -498.663)" fill="#fff"/>
      <path id="Path_4" data-name="Path 4" d="M339.953,520.45h6.623v-6.586h-6.623v-1.948h.006c.026-.66.007-1.368-.006-2.065v-1.1a10.393,10.393,0,0,1,.1-1.414h7.006v-7.1H329.36c0,.026,0,.054,0,.079h-.012v.31c-.174,3.312-.018,6.957-.075,10.39l.075,0V535H347.72V528.04h-7.767Z" transform="translate(-258.133 -498.776)" fill="#fff"/>
      <path id="Path_5" data-name="Path 5" d="M479.686,528.041v-7.59h6.623v-3.986c.066-.826-.031-1.818.016-2.662H479.77v-6.467h7.1v-7.095H469.082v.079h0V535h18.373v-6.959Z" transform="translate(-277.228 -498.777)" fill="#fff"/>
      <path id="Path_6" data-name="Path 6" d="M305.016,500.319h-.065v1.813c-.075,2.924.026,6.025-.022,8.976l.022,0V535h10.606V520.45H322.1v-6.586h-6.545v-3.113l.06,0v-3.412h7.274v-7.1H305.018c0,.025,0,.053,0,.079" transform="translate(-254.809 -498.776)" fill="#fff"/>
      <path id="Path_7" data-name="Path 7" d="M280.57,500.319h-.028v.944c-.136,3.793,0,7.856-.059,11.732l.059-.008V535h10.607V520.45h6.544v-6.586h-6.544v-2.035l.022,0a43.9,43.9,0,0,1,.09-4.491h7.274v-7.1H280.573c0,.027,0,.053,0,.079" transform="translate(-251.47 -498.776)" fill="#fff"/>
      <path id="Path_8" data-name="Path 8" d="M419.341,500.319h-.016v.869c-.167,6.667-.016,13.653-.073,20.428h.073V535h10.605V521.438h.01v-21.2h-10.6c0,.027,0,.053,0,.079" transform="translate(-270.422 -498.776)" fill="#fff"/>
      <path id="Path_9" data-name="Path 9" d="M450.684,500.51c-.656,6.708-1.467,13.261-2.065,20.03.018,0,.036,0,.054,0-.12,1.318-.239,2.66-.357,4.043-.108-1.256-.234-2.584-.369-3.948l.043,0c-.678-6.926-1.517-13.692-2.425-20.389H434.426c0,.027.009.053.012.079h-.1l.481,2.7c.9,6.028,2.168,12.148,3.2,18.145l.022,0L440.5,535h16.068l2.381-15.262c.03,0,.06,0,.091-.007.909-6.577,2.053-12.916,2.965-19.49H450.864a.247.247,0,0,0-.18.27" transform="translate(-272.483 -498.776)" fill="#fff"/>
      <path id="Path_10" data-name="Path 10" d="M369.487,515.509c-1.849-5.156-3.892-10.119-5.749-15.269h-8.892c-.1.016-.1.142-.09.27V513.8l.05.012V535h8.872V519.234L369.2,535h9.3V519.364l.057.008V500.24h-8.981c-.06,5.061.119,10.36-.091,15.269" transform="translate(-261.614 -498.776)" fill="#fff"/>
      <path id="Path_11" data-name="Path 11" d="M410.488,521.413a6.936,6.936,0,0,0-.37-1.055,6.7,6.7,0,0,0-.964-1.728,7.377,7.377,0,0,0-.648-.691c-2.018-2.167-5.073-3.684-7.629-4.969-1.3-.652-2.944-1.313-3.592-2.336-.624-.983-.817-4.009.336-5.012a1.821,1.821,0,0,1,1.018-.282,2.506,2.506,0,0,1,.364.028,2.692,2.692,0,0,1,.438.148c1.179.523.68,3.119.808,5.119h.016v.063h1.607c2.68.08,5.546-.023,8.258.026,0-3.025.078-5.478-.9-7.276-1.2-2.2-3.716-3.129-6.673-3.609a21.4,21.4,0,0,0-2.6-.319l-.25-.023c-.106.015-.16-.02-.18-.09H397.1c-3.854.21-7.843,1.54-9.34,4.132-1.214,2.1-1.4,5.311-.787,8.1.025.138.059.265.087.4,0,.022.009.043.016.064a7.97,7.97,0,0,0,.541,1.654c.019.043.043.079.063.12a7.162,7.162,0,0,0,1.606,2.416c1.345,1.249,3.75,2.4,5.658,3.5a9.424,9.424,0,0,0,1.886,1.078c.02.005.044.005.065.01a19.691,19.691,0,0,1,3.018,2.04q.977.944.977,4.014a3.57,3.57,0,0,1-.512,2.1,1.8,1.8,0,0,1-1.559.709,1.705,1.705,0,0,1-1.461-.558,4.879,4.879,0,0,1-.41-2.51v-4.226H387.1v2.274a15.484,15.484,0,0,0,.931,6.028,7.321,7.321,0,0,0,3.94,3.5,17.432,17.432,0,0,0,7.265,1.373,17.943,17.943,0,0,0,6.8-1.189,7.69,7.69,0,0,0,3.94-2.949,11.27,11.27,0,0,0,1.02-5.465,17.867,17.867,0,0,0-.521-4.613h.022" transform="translate(-265.969 -498.663)" fill="#fff"/>
      <path id="Path_12" data-name="Path 12" d="M507.732,514.342a7.018,7.018,0,0,1-.108-14.031h.054a6.842,6.842,0,0,1,6.774,7.071,6.736,6.736,0,0,1-6.719,6.96m0-15.8h-.054a9.005,9.005,0,1,0,.054,0m-.43,8.408h-.968v-2.517a4.9,4.9,0,0,1,1.128-.108c1.291,0,1.882.535,1.882,1.338,0,.912-.915,1.286-2.043,1.286m2.418.642v-.108a2.267,2.267,0,0,0,1.827-2.088,2.2,2.2,0,0,0-.914-1.874,4.689,4.689,0,0,0-3.01-.7,24.144,24.144,0,0,0-3.387.267v8.784h2.044V508.4h.966c1.129,0,1.667.428,1.828,1.339a6.956,6.956,0,0,0,.7,2.142h2.151a7.691,7.691,0,0,1-.645-2.142c-.27-1.178-.7-1.874-1.559-2.142" transform="translate(-281.259 -498.545)" fill="#fff"/>
      <path id="Path_13" data-name="Path 13" d="M445.287,550.686,443.335,565.5l-4.052-14.816H428.065l6.777,18.356a14.833,14.833,0,0,1,.767,2.3c0,.364-.276.6-.826.7a25.982,25.982,0,0,1-3.7.157v3.492h7.5a46.949,46.949,0,0,0,7.478-.422,9.553,9.553,0,0,0,3.657-1.313,5.022,5.022,0,0,0,1.881-2.264,36.907,36.907,0,0,0,1.41-5.149l3.541-15.858ZM423.3,566.406V554.692h3.379v-3.463H423.3v-3.465H410.879v3.465h-2.647v3.463h2.647V565.82a15.05,15.05,0,0,0,.338,4.152,3.229,3.229,0,0,0,1.717,1.569,9.323,9.323,0,0,0,3.192.876q1.809.189,6.047.188h5v-3.544a11.968,11.968,0,0,1-3.464-.247Q423.3,568.567,423.3,566.406Zm-27.49-17.045h10.455v-3.49H395.806Zm0,23.244h10.455V550.686H395.806Zm-10.23-19.036.456-2.883H373.707v21.919h12.371v-8.661a13.542,13.542,0,0,1,.367-4.074,2.866,2.866,0,0,1,1.957-1.381,18.148,18.148,0,0,1,4.98-.5v-7.712Q388.27,550.463,385.576,553.569ZM356.89,565.454a10.324,10.324,0,0,1-.262,3.192q-.26.5-1.648.5-1.293,0-1.586-.48a8.555,8.555,0,0,1-.292-3.043V550.686H340.73v14.79a20.847,20.847,0,0,0,.215,3.775,3.792,3.792,0,0,0,1.088,1.827,6.19,6.19,0,0,0,2.713,1.4,17.1,17.1,0,0,0,4.631.528,15.46,15.46,0,0,0,4.34-.553,8.434,8.434,0,0,0,3.173-1.664l-.216,1.811h12.587V550.686H356.89Zm-19.634-6.487a8.523,8.523,0,0,0-1.135-4.781q-1.135-1.687-4.569-2.8a27.144,27.144,0,0,0-8.28-1.109,26.822,26.822,0,0,0-8.282,1.116q-3.4,1.115-4.447,2.538a7.1,7.1,0,0,0-1.042,4.216v6.231a6.889,6.889,0,0,0,5.612,7.664,35.329,35.329,0,0,0,15.211.265,11.8,11.8,0,0,0,4.523-2.083,5.348,5.348,0,0,0,2.056-2.693,18.738,18.738,0,0,0,.353-3.941H326.207v2.617a4.228,4.228,0,0,1-.445,2.318,1.992,1.992,0,0,1-1.706.613,2.133,2.133,0,0,1-1.632-.589,2.485,2.485,0,0,1-.553-1.765V556.42a3.057,3.057,0,0,1,.37-1.855,1.928,1.928,0,0,1,1.449-.415,1.876,1.876,0,0,1,1.479.474,2.922,2.922,0,0,1,.4,1.8v2.541Zm-43.821-.513h-3.652v-1.606a4.857,4.857,0,0,1,.31-2.276q.308-.421,1.608-.422a1.592,1.592,0,0,1,1.393.5,4.513,4.513,0,0,1,.342,2.2Zm6.3-7.108a34.007,34.007,0,0,0-16.153-.181,9.314,9.314,0,0,0-4.725,2.546,6.684,6.684,0,0,0-1.442,4.537v6.4a8.53,8.53,0,0,0,.643,3.728,6.228,6.228,0,0,0,2.317,2.347,13.956,13.956,0,0,0,4.679,1.678,35.061,35.061,0,0,0,6.932.611,30.58,30.58,0,0,0,6.734-.621,12.425,12.425,0,0,0,4.435-1.865,6.293,6.293,0,0,0,2.223-2.337,8.124,8.124,0,0,0,.477-3.132v-1.624H294.118v2.912a3.643,3.643,0,0,1-.48,2.222,2.43,2.43,0,0,1-1.9.575,2.113,2.113,0,0,1-1.55-.432,3.069,3.069,0,0,1-.4-1.924v-4.761h16.069v-2.909a7.908,7.908,0,0,0-1.365-4.946A9.453,9.453,0,0,0,299.73,551.347Zm-26.936,11.126q-1.686-1.256-7.077-2.68a47.134,47.134,0,0,1-5.347-1.638,3.374,3.374,0,0,1-1.562-1.034,3.181,3.181,0,0,1-.261-1.48,1.286,1.286,0,0,1,.522-1.118,2.7,2.7,0,0,1,1.563-.372q1.287,0,1.609.4a3.587,3.587,0,0,1,.323,1.925v1.189H273.52V556.4a6.745,6.745,0,0,0-.322-2.425,4.3,4.3,0,0,0-1.838-1.681,13.838,13.838,0,0,0-4.353-1.46,36.562,36.562,0,0,0-6.879-.552,33.645,33.645,0,0,0-7.157.678,9.109,9.109,0,0,0-4.367,1.929,5.192,5.192,0,0,0-1.287,3.879,4.662,4.662,0,0,0,1.2,3.2q1.2,1.35,6.663,3,6.507,1.953,7.215,2.35.675.4.675,1.969a1.724,1.724,0,0,1-.523,1.5,3.481,3.481,0,0,1-1.846.355,2.014,2.014,0,0,1-1.644-.53,4.178,4.178,0,0,1-.415-2.3v-1.391h-11v1.057a5.839,5.839,0,0,0,1.257,4.1,9.231,9.231,0,0,0,4.617,2.147,35.682,35.682,0,0,0,8.084.792,31.1,31.1,0,0,0,7.286-.737,8.7,8.7,0,0,0,4.31-2.1,5.7,5.7,0,0,0,1.289-4.047A4.284,4.284,0,0,0,272.794,562.473Z" transform="translate(-246.941 -505.009)" fill="none" stroke="#fff" stroke-miterlimit="10" stroke-width="1"/>
    </g>
  </g>
</svg>
